<svg width="121" height="22" viewBox="0 0 121 22" fill="none" xmlns="http://www.w3.org/2000/svg">
<g clip-path="url(#clip0_1_1046)">
<path d="M11 21.9999C17.0753 21.9999 22 17.0752 22 10.9999V3.29995C22 2.42473 21.6523 1.58536 21.0335 0.966494C20.4146 0.347624 19.5752 -5.34058e-05 18.7 -5.34058e-05H11.55V4.82565C11.55 5.92675 11.6171 7.06745 12.1946 8.00465C12.6081 8.67631 13.1611 9.25119 13.8163 9.69029C14.4715 10.1294 15.2134 10.4224 15.9918 10.5495L16.2025 10.5836C16.2893 10.6133 16.3647 10.6694 16.4181 10.744C16.4715 10.8187 16.5002 10.9082 16.5002 10.9999C16.5002 11.0917 16.4715 11.1812 16.4181 11.2559C16.3647 11.3305 16.2893 11.3866 16.2025 11.4163L15.9918 11.4504C14.8545 11.6362 13.8043 12.1745 12.9894 12.9894C12.1746 13.8042 11.6363 14.8544 11.4505 15.9917L11.4164 16.2024C11.3867 16.2892 11.3306 16.3646 11.2559 16.418C11.1813 16.4714 11.0918 16.5001 11 16.5001C10.9082 16.5001 10.8188 16.4714 10.7441 16.418C10.6695 16.3646 10.6134 16.2892 10.5837 16.2024L10.5496 15.9917C10.4225 15.2134 10.1294 14.4714 9.69032 13.8162C9.25123 13.1611 8.67637 12.608 8.00473 12.1945C7.06753 11.617 5.92683 11.5499 4.82573 11.5499H0.0132263C0.300876 17.3695 5.10953 21.9999 11 21.9999Z" fill="#EEEEEE"/>
<path d="M0 10.45H4.8257C5.9268 10.45 7.0675 10.3829 8.0047 9.80541C8.73731 9.35403 9.35401 8.73732 9.8054 8.00471C10.3829 7.06751 10.45 5.92681 10.45 4.82571V1.30682e-05H3.3C2.42479 1.30682e-05 1.58542 0.347691 0.966548 0.966561C0.347678 1.58543 0 2.4248 0 3.30001V10.45Z" fill="#EEEEEE"/>
<path d="M116.441 6.65713C119.516 6.65713 121 8.80488 121 11.2925V15.9648H117.782V11.8469C117.782 10.7194 117.371 9.78883 116.191 9.78883C115.011 9.78883 114.618 10.7194 114.618 11.8469V15.9642H111.4V11.8469C111.4 10.7194 111.006 9.78883 109.826 9.78883C108.646 9.78883 108.235 10.7194 108.235 11.8469V15.9642H105.018V11.292C105.018 8.80433 106.501 6.65658 109.576 6.65658C111.257 6.65658 112.472 7.31878 113.027 8.41053C113.616 7.31878 114.904 6.65713 116.441 6.65713ZM99.2348 13.1009C100.272 13.1009 100.719 12.1522 100.719 11.0241V7.01463H103.936V11.4179C103.936 14.0491 102.399 16.2332 99.2348 16.2332C96.0701 16.2332 94.5329 14.0497 94.5329 11.4179V7.01463H97.7509V11.0241C97.7509 12.1516 98.1975 13.1009 99.2348 13.1009ZM89.8012 16.2508C87.7811 16.2508 86.4759 15.5528 85.707 14.1927L88.0313 12.8859C88.3531 13.4584 88.8354 13.745 89.6401 13.745C90.3017 13.745 90.6053 13.5123 90.6053 13.2258C90.6053 12.134 85.8858 13.2439 85.8858 9.77178C85.8858 8.08878 87.3158 6.72863 89.7473 6.72863C91.8747 6.72863 93.0369 7.76648 93.5555 8.76913L91.2312 10.0935C91.0349 9.55673 90.4266 9.23443 89.8188 9.23443C89.3541 9.23443 89.1038 9.43133 89.1038 9.69973C89.1038 10.8096 93.8234 9.78938 93.8234 13.1543C93.8234 15.0336 91.982 16.2508 89.8012 16.2508ZM78.5581 20.0815H75.3401V11.4718C75.3401 8.73283 77.396 6.74623 80.2565 6.74623C83.0456 6.74623 85.173 8.87638 85.173 11.4718C85.173 14.3357 83.2777 16.2332 80.4353 16.2332C79.7736 16.2332 79.1125 16.0363 78.5581 15.7316V20.0815ZM80.2565 13.2082C81.2757 13.2082 81.9549 12.4206 81.9549 11.4894C81.9549 10.5412 81.2757 9.77123 80.2565 9.77123C79.2374 9.77123 78.5581 10.5412 78.5581 11.49C78.5581 12.4206 79.2374 13.2082 80.2565 13.2082ZM72.1165 6.06643C71.0616 6.06643 70.186 5.18918 70.186 4.13318C70.186 3.07718 71.0616 2.19993 72.1165 2.19993C73.1714 2.19993 74.0476 3.07718 74.0476 4.13318C74.0476 5.18918 73.1714 6.06643 72.1165 6.06643ZM70.5078 7.01463H73.7258V15.9648H70.5078V7.01463ZM64.3335 16.2332C61.5444 16.2332 59.417 14.0854 59.417 11.4718C59.417 8.87638 61.5444 6.72863 64.3335 6.72863C67.1225 6.72863 69.2499 8.87638 69.2499 11.4718C69.2499 14.0854 67.1225 16.2332 64.3335 16.2332ZM64.3335 13.2082C65.3526 13.2082 66.0319 12.4206 66.0319 11.4894C66.0319 10.5412 65.3526 9.75363 64.3335 9.75363C63.3143 9.75363 62.6351 10.5412 62.6351 11.4894C62.6351 12.4206 63.3143 13.2082 64.3335 13.2082ZM53.3406 20.3499C51.1241 20.3499 49.5148 19.3654 48.6926 17.6109L51.3562 16.1793C51.6422 16.7881 52.1785 17.4146 53.2867 17.4146C54.4494 17.4146 55.2178 16.6803 55.3074 15.3917C54.8784 15.7679 54.1986 16.0539 53.18 16.0539C50.6946 16.0539 48.692 14.1388 48.692 11.4537C48.692 8.85878 50.82 6.74623 53.609 6.74623C56.4696 6.74623 58.5255 8.73338 58.5255 11.4718V15.016C58.5255 18.2379 56.2903 20.3499 53.3406 20.3499ZM53.5551 13.0294C54.5204 13.0294 55.2535 12.3667 55.2535 11.3822C55.2535 10.4158 54.5209 9.77123 53.5551 9.77123C52.6075 9.77123 51.8567 10.4158 51.8567 11.3827C51.8567 12.3672 52.6075 13.0294 53.5551 13.0294ZM43.2338 16.2332C40.4448 16.2332 38.3168 14.0854 38.3168 11.4718C38.3168 8.87638 40.4448 6.72863 43.2338 6.72863C46.0223 6.72863 48.1503 8.87638 48.1503 11.4718C48.1503 14.0854 46.0229 16.2332 43.2338 16.2332ZM43.2338 13.2082C44.253 13.2082 44.9322 12.4206 44.9322 11.4894C44.9322 10.5412 44.253 9.75363 43.2338 9.75363C42.2147 9.75363 41.5354 10.5412 41.5354 11.4894C41.5354 12.4206 42.2147 13.2082 43.2338 13.2082ZM32.4571 3.88293V12.9216H37.785V15.9648H32.01C29.9722 15.9648 29.15 14.8906 29.15 13.19V3.88293H32.4571Z" fill="#EEEEEE"/>
</g>
<defs>
<clipPath id="clip0_1_1046">
<rect width="121" height="22" fill="white"/>
</clipPath>
</defs>
</svg>
